<svg width="24" height="24" viewBox="0 0 24 24" fill="none" xmlns="http://www.w3.org/2000/svg">
<path d="M17.8333 5.33333H17.41L15.59 2.97333C15.3554 2.67151 15.0553 2.42701 14.7122 2.25838C14.3692 2.08974 13.9923 2.00139 13.61 2L10.39 2C10.0077 2.00139 9.63082 2.08974 9.28778 2.25838C8.94473 2.42701 8.64456 2.67151 8.41 2.97333L6.59 5.33333H6.16667C5.062 5.33466 4.00296 5.77407 3.22185 6.55518C2.44073 7.3363 2.00132 8.39534 2 9.5L2 17.8333C2.00132 18.938 2.44073 19.997 3.22185 20.7782C4.00296 21.5593 5.062 21.9987 6.16667 22H17.8333C18.938 21.9987 19.997 21.5593 20.7782 20.7782C21.5593 19.997 21.9987 18.938 22 17.8333V9.5C21.9987 8.39534 21.5593 7.3363 20.7782 6.55518C19.997 5.77407 18.938 5.33466 17.8333 5.33333V5.33333ZM9.73 3.99167C9.80806 3.89088 9.90808 3.80922 10.0224 3.7529C10.1368 3.69658 10.2625 3.66709 10.39 3.66667H13.61C13.7375 3.66721 13.8631 3.69676 13.9775 3.75307C14.0918 3.80938 14.1919 3.89097 14.27 3.99167L15.305 5.33333H8.695L9.73 3.99167ZM20.3333 17.8333C20.3333 18.4964 20.0699 19.1323 19.6011 19.6011C19.1323 20.0699 18.4964 20.3333 17.8333 20.3333H6.16667C5.50363 20.3333 4.86774 20.0699 4.3989 19.6011C3.93006 19.1323 3.66667 18.4964 3.66667 17.8333V9.5C3.66667 8.83696 3.93006 8.20107 4.3989 7.73223C4.86774 7.26339 5.50363 7 6.16667 7H17.8333C18.4964 7 19.1323 7.26339 19.6011 7.73223C20.0699 8.20107 20.3333 8.83696 20.3333 9.5V17.8333Z" fill="#222222"/>
<path d="M12 8.66656C11.0111 8.66656 10.0444 8.95981 9.22215 9.50922C8.39991 10.0586 7.75904 10.8395 7.3806 11.7531C7.00217 12.6668 6.90315 13.6721 7.09608 14.642C7.289 15.6119 7.76521 16.5028 8.46447 17.2021C9.16373 17.9014 10.0546 18.3776 11.0246 18.5705C11.9945 18.7634 12.9998 18.6644 13.9134 18.286C14.8271 17.9075 15.6079 17.2667 16.1574 16.4444C16.7068 15.6222 17 14.6555 17 13.6666C16.9987 12.3409 16.4715 11.0699 15.5341 10.1325C14.5967 9.1951 13.3257 8.66789 12 8.66656V8.66656ZM12 16.9999C11.3407 16.9999 10.6963 16.8044 10.1481 16.4381C9.59994 16.0719 9.1727 15.5513 8.9204 14.9422C8.66811 14.3331 8.6021 13.6629 8.73072 13.0163C8.85934 12.3697 9.1768 11.7757 9.64298 11.3095C10.1092 10.8434 10.7031 10.5259 11.3497 10.3973C11.9963 10.2687 12.6665 10.3347 13.2756 10.587C13.8847 10.8393 14.4053 11.2665 14.7716 11.8147C15.1378 12.3628 15.3333 13.0073 15.3333 13.6666C15.3333 14.5506 14.9821 15.3985 14.357 16.0236C13.7319 16.6487 12.8841 16.9999 12 16.9999Z" fill="#222222"/>
</svg>
