<svg width="24" height="24" viewBox="0 0 24 24" fill="none" xmlns="http://www.w3.org/2000/svg">
<path d="M17.8333 2H6.16667C5.062 2.00132 4.00296 2.44073 3.22185 3.22185C2.44073 4.00296 2.00132 5.062 2 6.16667L2 17.8333C2.00132 18.938 2.44073 19.997 3.22185 20.7782C4.00296 21.5593 5.062 21.9987 6.16667 22H17.8333C18.938 21.9987 19.997 21.5593 20.7782 20.7782C21.5593 19.997 21.9987 18.938 22 17.8333V6.16667C21.9987 5.062 21.5593 4.00296 20.7782 3.22185C19.997 2.44073 18.938 2.00132 17.8333 2V2ZM6.16667 3.66667H17.8333C18.4964 3.66667 19.1323 3.93006 19.6011 4.3989C20.0699 4.86774 20.3333 5.50363 20.3333 6.16667V17.8333C20.3319 18.2046 20.2464 18.5707 20.0833 18.9042L12.4475 11.2683C12.0606 10.8813 11.6012 10.5743 11.0956 10.3648C10.59 10.1554 10.0481 10.0476 9.50083 10.0476C8.95357 10.0476 8.41166 10.1554 7.90607 10.3648C7.40047 10.5743 6.94109 10.8813 6.55417 11.2683L3.66667 14.155V6.16667C3.66667 5.50363 3.93006 4.86774 4.3989 4.3989C4.86774 3.93006 5.50363 3.66667 6.16667 3.66667V3.66667ZM6.16667 20.3333C5.50363 20.3333 4.86774 20.0699 4.3989 19.6011C3.93006 19.1323 3.66667 18.4964 3.66667 17.8333V16.5117L7.73167 12.4467C7.96383 12.2144 8.2395 12.0301 8.54292 11.9043C8.84634 11.7786 9.17156 11.7139 9.5 11.7139C9.82844 11.7139 10.1537 11.7786 10.4571 11.9043C10.7605 12.0301 11.0362 12.2144 11.2683 12.4467L18.9042 20.0833C18.5707 20.2464 18.2046 20.3319 17.8333 20.3333H6.16667Z" fill="#222222"/>
<path d="M15.3334 10.7497C15.9102 10.7497 16.4742 10.5786 16.9538 10.2581C17.4334 9.93765 17.8073 9.48213 18.028 8.94918C18.2488 8.41623 18.3065 7.82978 18.194 7.26401C18.0815 6.69823 17.8037 6.17853 17.3958 5.77062C16.9879 5.36272 16.4682 5.08494 15.9024 4.9724C15.3366 4.85986 14.7502 4.91762 14.2172 5.13837C13.6843 5.35913 13.2288 5.73296 12.9083 6.21261C12.5878 6.69225 12.4167 7.25616 12.4167 7.83302C12.4167 8.60657 12.724 9.34843 13.271 9.89541C13.818 10.4424 14.5598 10.7497 15.3334 10.7497V10.7497ZM15.3334 6.58302C15.5806 6.58302 15.8223 6.65633 16.0278 6.79368C16.2334 6.93103 16.3936 7.12626 16.4882 7.35467C16.5828 7.58307 16.6076 7.83441 16.5594 8.07688C16.5111 8.31936 16.3921 8.54209 16.2173 8.7169C16.0425 8.89172 15.8197 9.01077 15.5772 9.059C15.3348 9.10723 15.0834 9.08248 14.855 8.98787C14.6266 8.89326 14.4314 8.73304 14.294 8.52748C14.1567 8.32192 14.0834 8.08025 14.0834 7.83302C14.0834 7.5015 14.2151 7.18356 14.4495 6.94914C14.6839 6.71472 15.0019 6.58302 15.3334 6.58302V6.58302Z" fill="#222222"/>
</svg>
