<svg xmlns="http://www.w3.org/2000/svg" width="20" height="23" viewBox="0 0 20 23" fill="none">
    <path d="M0 19.748V8.49805C0 8.10221 0.0885417 7.72721 0.265625 7.37305C0.442708 7.01888 0.6875 6.72721 1 6.49805L8.5 0.873047C8.9375 0.539714 9.4375 0.373047 10 0.373047C10.5625 0.373047 11.0625 0.539714 11.5 0.873047L19 6.49805C19.3125 6.72721 19.5573 7.01888 19.7344 7.37305C19.9115 7.72721 20 8.10221 20 8.49805V19.748C20 20.4355 19.7552 21.0241 19.2656 21.5137C18.776 22.0033 18.1875 22.248 17.5 22.248H13.75C13.3958 22.248 13.099 22.1283 12.8594 21.8887C12.6198 21.6491 12.5 21.3522 12.5 20.998V14.748C12.5 14.3939 12.3802 14.097 12.1406 13.8574C11.901 13.6178 11.6042 13.498 11.25 13.498H8.75C8.39583 13.498 8.09896 13.6178 7.85938 13.8574C7.61979 14.097 7.5 14.3939 7.5 14.748V20.998C7.5 21.3522 7.38021 21.6491 7.14062 21.8887C6.90104 22.1283 6.60417 22.248 6.25 22.248H2.5C1.8125 22.248 1.22396 22.0033 0.734375 21.5137C0.244792 21.0241 0 20.4355 0 19.748Z" fill="black"/>
</svg>
