<svg width="18" height="18" viewBox="0 0 18 18" fill="none" xmlns="http://www.w3.org/2000/svg">
<path fill-rule="evenodd" clip-rule="evenodd" d="M9 18C13.9706 18 18 13.9706 18 9C18 4.02944 13.9706 0 9 0C4.02944 0 0 4.02944 0 9C0 13.9706 4.02944 18 9 18ZM13.7672 6.64018C14.1208 6.21591 14.0635 5.58534 13.6392 5.23178C13.2149 4.87821 12.5844 4.93554 12.2308 5.35982L8.63285 9.67736C8.28613 10.0934 8.09122 10.3238 7.9356 10.4653L7.92965 10.4707L7.92324 10.4659C7.75545 10.339 7.54048 10.1272 7.15752 9.74428L5.70613 8.29289C5.31561 7.90237 4.68244 7.90237 4.29192 8.29289C3.90139 8.68342 3.90139 9.31658 4.29192 9.70711L5.74331 11.1585L5.78413 11.1993C6.11062 11.5259 6.42472 11.8402 6.71696 12.0611C7.04433 12.3087 7.47304 12.5415 8.02245 12.5165C8.57186 12.4916 8.97775 12.221 9.28136 11.9448C9.55239 11.6983 9.83674 11.3569 10.1323 11.0021L10.1323 11.0021L10.1693 10.9577L13.7672 6.64018Z" fill="#1251D4"/>
</svg>
