<svg width="20" height="20" viewBox="0 0 20 20" fill="none" xmlns="http://www.w3.org/2000/svg">
<circle cx="10" cy="10" r="9.5" fill="white" stroke="#FF0000"/>
<path d="M10 1C14.9707 1 19 5.0293 19 10C19 14.9707 14.9707 19 10 19C5.0293 19 1 14.9707 1 10C1 5.0293 5.0293 1 10 1ZM13.24 5.68C13.1454 5.60909 13.0379 5.55749 12.9234 5.52816C12.8089 5.49883 12.6897 5.49233 12.5727 5.50905C12.4557 5.52576 12.3432 5.56536 12.2415 5.62557C12.1398 5.68579 12.0509 5.76545 11.98 5.86L10 8.4997L8.02 5.86C7.94909 5.76545 7.86024 5.68579 7.75854 5.62557C7.65685 5.56536 7.54428 5.52576 7.42728 5.50905C7.31028 5.49233 7.19113 5.49883 7.07664 5.52816C6.96214 5.55749 6.85455 5.60909 6.76 5.68C6.66545 5.75091 6.58579 5.83976 6.52557 5.94146C6.46536 6.04316 6.42576 6.15572 6.40905 6.27272C6.39233 6.38972 6.39883 6.50887 6.42816 6.62336C6.45749 6.73785 6.50909 6.84545 6.58 6.94L8.875 10L6.58 13.06C6.43678 13.251 6.37529 13.491 6.40905 13.7273C6.4428 13.9636 6.56904 14.1768 6.76 14.32C6.95096 14.4632 7.19098 14.5247 7.42728 14.491C7.66357 14.4572 7.87678 14.331 8.02 14.14L10 11.5003L11.98 14.14C12.1232 14.331 12.3364 14.4572 12.5727 14.491C12.809 14.5247 13.049 14.4632 13.24 14.32C13.431 14.1768 13.5572 13.9636 13.591 13.7273C13.6247 13.491 13.5632 13.251 13.42 13.06L11.125 10L13.42 6.94C13.4909 6.84545 13.5425 6.73785 13.5718 6.62336C13.6012 6.50887 13.6077 6.38972 13.591 6.27272C13.5742 6.15572 13.5346 6.04316 13.4744 5.94146C13.4142 5.83976 13.3346 5.75091 13.24 5.68Z" fill="#FF0000"/>
</svg>
