<svg xmlns="http://www.w3.org/2000/svg" width="12" height="18" viewBox="0 0 12 18" fill="none">
    <path d="M3.52501 9.02249L10.875 15.3396C11.125 15.5545 11.2458 15.8088 11.2375 16.1024C11.2292 16.3961 11.1 16.6503 10.85 16.8652C10.6 17.0801 10.3042 17.1875 9.96251 17.1875C9.62085 17.1875 9.32501 17.0801 9.07501 16.8652L1.40001 10.2472C1.20001 10.0754 1.05001 9.88197 0.950012 9.6671C0.850012 9.45223 0.800012 9.23736 0.800012 9.02249C0.800012 8.80763 0.850012 8.59276 0.950012 8.37789C1.05001 8.16302 1.20001 7.96964 1.40001 7.79774L9.10001 1.17979C9.35001 0.964926 9.64168 0.861072 9.97501 0.868235C10.3083 0.875397 10.6 0.986412 10.85 1.20128C11.1 1.41615 11.225 1.67041 11.225 1.96406C11.225 2.25772 11.1 2.51198 10.85 2.72685L3.52501 9.02249Z" fill="#828282"/>
</svg>
