<svg xmlns="http://www.w3.org/2000/svg" width="15" height="15" viewBox="0 0 15 15" fill="none">
  <path d="M7.50006 13.3281C7.35423 13.3281 7.20839 13.3021 7.06256 13.25C6.91673 13.1979 6.78652 13.1198 6.67194 13.0156C5.99485 12.3906 5.39589 11.7812 4.87506 11.1875C4.35423 10.5938 3.91933 10.0182 3.57037 9.46094C3.22142 8.90365 2.95579 8.36719 2.7735 7.85156C2.59121 7.33594 2.50006 6.84375 2.50006 6.375C2.50006 4.8125 3.00267 3.56771 4.00787 2.64062C5.01308 1.71354 6.17714 1.25 7.50006 1.25C8.82298 1.25 9.98704 1.71354 10.9922 2.64062C11.9975 3.56771 12.5001 4.8125 12.5001 6.375C12.5001 6.84375 12.4089 7.33594 12.2266 7.85156C12.0443 8.36719 11.7787 8.90365 11.4297 9.46094C11.0808 10.0182 10.6459 10.5938 10.1251 11.1875C9.60423 11.7812 9.00527 12.3906 8.32819 13.0156C8.2136 13.1198 8.08339 13.1979 7.93756 13.25C7.79173 13.3021 7.64589 13.3281 7.50006 13.3281ZM7.50006 7.5C7.84381 7.5 8.13808 7.3776 8.38287 7.13281C8.62767 6.88802 8.75006 6.59375 8.75006 6.25C8.75006 5.90625 8.62767 5.61198 8.38287 5.36719C8.13808 5.1224 7.84381 5 7.50006 5C7.15631 5 6.86204 5.1224 6.61725 5.36719C6.37246 5.61198 6.25006 5.90625 6.25006 6.25C6.25006 6.59375 6.37246 6.88802 6.61725 7.13281C6.86204 7.3776 7.15631 7.5 7.50006 7.5Z" fill="black"/>
</svg>
