<svg width="20" height="20" viewBox="0 0 20 20" fill="none" xmlns="http://www.w3.org/2000/svg">
<path d="M0 7C0 5.11438 0 4.17157 0.585786 3.58579C1.17157 3 2.11438 3 4 3H16C17.8856 3 18.8284 3 19.4142 3.58579C20 4.17157 20 5.11438 20 7C20 7.4714 20 7.70711 19.8536 7.85355C19.7071 8 19.4714 8 19 8H1C0.528596 8 0.292893 8 0.146447 7.85355C0 7.70711 0 7.4714 0 7Z" fill=""/>
<path fill-rule="evenodd" clip-rule="evenodd" d="M0.585786 19.4142C0 18.8284 0 17.8856 0 16V11C0 10.5286 0 10.2929 0.146447 10.1464C0.292893 10 0.528596 10 1 10H19C19.4714 10 19.7071 10 19.8536 10.1464C20 10.2929 20 10.5286 20 11V16C20 17.8856 20 18.8284 19.4142 19.4142C18.8284 20 17.8856 20 16 20H4C2.11438 20 1.17157 20 0.585786 19.4142ZM6 14C5.44772 14 5 14.4477 5 15C5 15.5523 5.44772 16 6 16H14C14.5523 16 15 15.5523 15 15C15 14.4477 14.5523 14 14 14H6Z" fill=""/>
<path d="M5 1L5 4" stroke="" stroke-width="2" stroke-linecap="round"/>
<path d="M15 1L15 4" stroke="" stroke-width="2" stroke-linecap="round"/>
</svg>
