<svg width="18" height="19" viewBox="0 0 18 19" fill="none" xmlns="http://www.w3.org/2000/svg">
<path fill-rule="evenodd" clip-rule="evenodd" d="M3.36111 13.2778H12.3333C14.1142 13.2778 15.0046 13.2778 15.5579 12.7245C16.1111 12.1713 16.1111 11.2809 16.1111 9.5V4.77778C16.1111 2.99692 16.1111 2.10649 15.5579 1.55324C15.0046 1 14.1142 1 12.3333 1H4.77778C2.99692 1 2.10649 1 1.55324 1.55324C1 2.10649 1 2.99692 1 4.77778V15.6389C1 14.3349 2.05711 13.2778 3.36111 13.2778ZM12.8031 7.13644C13.5842 6.35539 13.5842 5.08906 12.8031 4.30801C12.0221 3.52696 10.7557 3.52696 9.97468 4.30801L7.61111 6.67157L7.13644 6.1969C6.35539 5.41585 5.08906 5.41585 4.30801 6.1969C3.52696 6.97795 3.52696 8.24428 4.30801 9.02532L5.48979 10.2071C6.66136 11.3787 8.56086 11.3787 9.73243 10.2071L12.8031 7.13644Z" fill=""/>
<path d="M15.5579 12.7245L14.8508 12.0174L14.8508 12.0174L15.5579 12.7245ZM12.8031 4.30801L12.096 5.01512L12.096 5.01512L12.8031 4.30801ZM12.8031 7.13644L13.5102 7.84354L13.5102 7.84354L12.8031 7.13644ZM9.97468 4.30801L9.26757 3.6009L9.26757 3.6009L9.97468 4.30801ZM7.61111 6.67157L6.904 7.37868L7.61111 8.08579L8.31822 7.37868L7.61111 6.67157ZM7.13644 6.1969L7.84354 5.48979L7.84354 5.48979L7.13644 6.1969ZM4.30801 6.1969L3.6009 5.48979L3.6009 5.48979L4.30801 6.1969ZM4.30801 9.02532L3.6009 9.73243L3.6009 9.73243L4.30801 9.02532ZM5.48979 10.2071L6.1969 9.5L6.1969 9.5L5.48979 10.2071ZM9.73243 10.2071L9.02532 9.5L9.02532 9.5L9.73243 10.2071ZM12.3333 12.2778H3.36111V14.2778H12.3333V12.2778ZM14.8508 12.0174C14.7909 12.0773 14.6762 12.1633 14.2727 12.2175C13.8405 12.2757 13.252 12.2778 12.3333 12.2778V14.2778C13.1955 14.2778 13.9427 14.2799 14.5392 14.1997C15.1645 14.1156 15.7716 13.925 16.265 13.4316L14.8508 12.0174ZM15.1111 9.5C15.1111 10.4187 15.109 11.0071 15.0509 11.4394C14.9966 11.8429 14.9106 11.9576 14.8508 12.0174L16.265 13.4316C16.7584 12.9383 16.949 12.3311 17.033 11.7059C17.1132 11.1094 17.1111 10.3622 17.1111 9.5H15.1111ZM15.1111 4.77778V9.5H17.1111V4.77778H15.1111ZM14.8508 2.26035C14.9106 2.3202 14.9966 2.43492 15.0509 2.8384C15.109 3.27065 15.1111 3.85908 15.1111 4.77778H17.1111C17.1111 3.91562 17.1132 3.1684 17.033 2.57191C16.949 1.94665 16.7584 1.33953 16.265 0.846136L14.8508 2.26035ZM12.3333 2C13.252 2 13.8405 2.00212 14.2727 2.06024C14.6762 2.11448 14.7909 2.2005 14.8508 2.26035L16.265 0.846136C15.7716 0.352746 15.1645 0.162136 14.5392 0.0780726C13.9427 -0.00212374 13.1955 0 12.3333 0V2ZM4.77778 2H12.3333V0H4.77778V2ZM2.26035 2.26035C2.3202 2.2005 2.43492 2.11448 2.8384 2.06024C3.27065 2.00212 3.85908 2 4.77778 2V0C3.91562 0 3.1684 -0.00212374 2.57191 0.0780726C1.94665 0.162136 1.33953 0.352746 0.846136 0.846136L2.26035 2.26035ZM2 4.77778C2 3.85908 2.00212 3.27065 2.06024 2.8384C2.11448 2.43492 2.2005 2.3202 2.26035 2.26035L0.846136 0.846136C0.352746 1.33953 0.162136 1.94665 0.0780726 2.57191C-0.00212374 3.1684 0 3.91562 0 4.77778H2ZM2 15.6389V4.77778H0V15.6389H2ZM3.36111 12.2778C1.50482 12.2778 0 13.7826 0 15.6389H2C2 14.8872 2.60939 14.2778 3.36111 14.2778V12.2778ZM12.096 5.01512C12.4865 5.40564 12.4865 6.03881 12.096 6.42933L13.5102 7.84354C14.6818 6.67197 14.6818 4.77248 13.5102 3.6009L12.096 5.01512ZM10.6818 5.01512C11.0723 4.62459 11.7055 4.62459 12.096 5.01512L13.5102 3.6009C12.3386 2.42933 10.4391 2.42933 9.26757 3.6009L10.6818 5.01512ZM8.31822 7.37868L10.6818 5.01512L9.26757 3.6009L6.904 5.96447L8.31822 7.37868ZM6.42933 6.904L6.904 7.37868L8.31822 5.96447L7.84354 5.48979L6.42933 6.904ZM5.01512 6.904C5.40564 6.51348 6.0388 6.51348 6.42933 6.904L7.84354 5.48979C6.67197 4.31822 4.77248 4.31822 3.6009 5.48979L5.01512 6.904ZM5.01512 8.31822C4.62459 7.92769 4.62459 7.29453 5.01512 6.904L3.6009 5.48979C2.42933 6.66136 2.42933 8.56086 3.6009 9.73243L5.01512 8.31822ZM6.1969 9.5L5.01511 8.31822L3.6009 9.73243L4.78268 10.9142L6.1969 9.5ZM9.02532 9.5C8.24428 10.281 6.97795 10.281 6.1969 9.5L4.78268 10.9142C6.34478 12.4763 8.87744 12.4763 10.4395 10.9142L9.02532 9.5ZM12.096 6.42933L9.02532 9.5L10.4395 10.9142L13.5102 7.84354L12.096 6.42933ZM7.61111 17H3.36111V19H7.61111V17ZM0 15.6389C0 17.4952 1.50482 19 3.36111 19V17C2.60939 17 2 16.3906 2 15.6389H0Z" fill=""/>
<path d="M17 18H7" stroke="#BBBBBB" stroke-width="2" stroke-linecap="round"/>
</svg>
