<svg width="84" height="96" viewBox="0 0 84 96" fill="none" xmlns="http://www.w3.org/2000/svg">
<g clip-path="url(#clip0_2916_2490)">
<path d="M14.3178 93.9207C8.39997 93.9207 3.60217 89.119 3.60217 83.1964V10.7243C3.60217 4.80168 8.39997 0 14.3178 0C20.2356 0 25.0334 4.80168 25.0334 10.7243V83.1978C25.0334 89.1204 20.2356 93.9221 14.3178 93.9221V93.9207Z" fill="#FFD056"/>
<g filter="url(#filter0_d_2916_2490)">
<path d="M70.8022 93.9208C64.8844 93.9208 60.0866 89.1191 60.0866 83.1966V66.8467C60.0866 57.1747 52.2228 49.3046 42.56 49.3046C32.8972 49.3046 25.0334 57.1747 25.0334 66.8467V83.1966C25.0334 89.1191 20.2356 93.9208 14.3178 93.9208C8.39997 93.9208 3.60217 89.1191 3.60217 83.1966V66.8467C3.60217 45.3478 21.0784 27.8574 42.56 27.8574C64.0416 27.8574 81.5178 45.3478 81.5178 66.8467V83.1966C81.5178 89.1191 76.72 93.9208 70.8022 93.9208Z" fill="#00B2FF"/>
</g>
<path d="M70.735 91.3119C75.3177 91.3119 79.0328 87.5939 79.0328 83.0074C79.0328 78.4209 75.3177 74.7029 70.735 74.7029C66.1522 74.7029 62.4372 78.4209 62.4372 83.0074C62.4372 87.5939 66.1522 91.3119 70.735 91.3119Z" fill="white"/>
<path d="M67.1734 82.493L69.7326 85.0795L74.3582 80.8677" stroke="#FFD056" stroke-width="3" stroke-linecap="round" stroke-linejoin="round"/>
</g>
<defs>
<filter id="filter0_d_2916_2490" x="-3.39783" y="20.8574" width="87.9156" height="76.0635" filterUnits="userSpaceOnUse" color-interpolation-filters="sRGB">
<feFlood flood-opacity="0" result="BackgroundImageFix"/>
<feColorMatrix in="SourceAlpha" type="matrix" values="0 0 0 0 0 0 0 0 0 0 0 0 0 0 0 0 0 0 127 0" result="hardAlpha"/>
<feOffset dx="-2" dy="-2"/>
<feGaussianBlur stdDeviation="2.5"/>
<feColorMatrix type="matrix" values="0 0 0 0 0.552941 0 0 0 0 0.882353 0 0 0 0 1 0 0 0 0.6 0"/>
<feBlend mode="normal" in2="BackgroundImageFix" result="effect1_dropShadow_2916_2490"/>
<feBlend mode="normal" in="SourceGraphic" in2="effect1_dropShadow_2916_2490" result="shape"/>
</filter>
<clipPath id="clip0_2916_2490">
<rect width="84" height="96" fill="white"/>
</clipPath>
</defs>
</svg>
