<svg width="22" height="22" viewBox="0 0 22 22" fill="none" xmlns="http://www.w3.org/2000/svg">
<path d="M18.3337 11.0003C18.3337 7.87289 18.3337 6.30918 17.5071 5.23195C17.2943 4.95462 17.046 4.70638 16.7687 4.49358C15.6915 3.66699 14.1278 3.66699 11.0003 3.66699V3.66699C7.87289 3.66699 6.30918 3.66699 5.23195 4.49358C4.95462 4.70638 4.70638 4.95462 4.49358 5.23195C3.66699 6.30918 3.66699 7.87289 3.66699 11.0003V16.3337C3.66699 17.2765 3.66699 17.7479 3.95989 18.0408C4.25278 18.3337 4.72418 18.3337 5.66699 18.3337H11.0003C14.1278 18.3337 15.6915 18.3337 16.7687 17.5071C17.046 17.2943 17.2943 17.046 17.5071 16.7687C18.3337 15.6915 18.3337 14.1278 18.3337 11.0003V11.0003Z" stroke="white"/>
<path d="M8.25 9.16699L13.75 9.16699" stroke="white" stroke-linecap="round" stroke-linejoin="round"/>
<path d="M8.25 12.833H11" stroke="white" stroke-linecap="round" stroke-linejoin="round"/>
</svg>
