<svg width="24" height="27" viewBox="0 0 24 27" fill="none" xmlns="http://www.w3.org/2000/svg">
    <path d="M12 26.5006C10.4375 26.5006 8.97396 26.2038 7.60938 25.61C6.24479 25.0163 5.05729 24.2142 4.04688 23.2038C3.03646 22.1933 2.23438 21.0058 1.64062 19.6413C1.04688 18.2767 0.75 16.8131 0.75 15.2506C0.75 14.8965 0.869792 14.5996 1.10938 14.36C1.34896 14.1204 1.64583 14.0006 2 14.0006C2.35417 14.0006 2.65104 14.1204 2.89062 14.36C3.13021 14.5996 3.25 14.8965 3.25 15.2506C3.25 17.6881 4.09896 19.7558 5.79688 21.4538C7.49479 23.1517 9.5625 24.0006 12 24.0006C14.4375 24.0006 16.5052 23.1517 18.2031 21.4538C19.901 19.7558 20.75 17.6881 20.75 15.2506C20.75 12.8131 19.901 10.7454 18.2031 9.0475C16.5052 7.34958 14.4375 6.50063 12 6.50063H11.8125L12.875 7.56313C13.125 7.81313 13.2448 8.10479 13.2344 8.43813C13.224 8.77146 13.1042 9.06313 12.875 9.31313C12.625 9.56313 12.3281 9.69334 11.9844 9.70375C11.6406 9.71417 11.3438 9.59438 11.0938 9.34438L7.875 6.12563C7.625 5.87563 7.5 5.58396 7.5 5.25063C7.5 4.91729 7.625 4.62563 7.875 4.37563L11.0938 1.15688C11.3438 0.906875 11.6406 0.787083 11.9844 0.7975C12.3281 0.807917 12.625 0.938125 12.875 1.18813C13.1042 1.43813 13.224 1.72979 13.2344 2.06313C13.2448 2.39646 13.125 2.68813 12.875 2.93813L11.8125 4.00063H12C13.5625 4.00063 15.026 4.2975 16.3906 4.89125C17.7552 5.485 18.9427 6.28708 19.9531 7.2975C20.9635 8.30792 21.7656 9.49542 22.3594 10.86C22.9531 12.2246 23.25 13.6881 23.25 15.2506C23.25 16.8131 22.9531 18.2767 22.3594 19.6413C21.7656 21.0058 20.9635 22.1933 19.9531 23.2038C18.9427 24.2142 17.7552 25.0163 16.3906 25.61C15.026 26.2038 13.5625 26.5006 12 26.5006Z" fill="#343434"/>
</svg>
