<svg xmlns="http://www.w3.org/2000/svg" width="30" height="30" viewBox="0 0 30 30" fill="none">
    <path d="M12.6563 27.498C12.3438 27.498 12.073 27.3939 11.8438 27.1855C11.6146 26.9772 11.4792 26.7168 11.4376 26.4043L11.0626 23.498C10.7917 23.3939 10.5365 23.2689 10.2969 23.123C10.0573 22.9772 9.82297 22.821 9.59381 22.6543L6.87506 23.7793C6.58339 23.9043 6.29172 23.9199 6.00006 23.8262C5.70839 23.7324 5.47922 23.5501 5.31256 23.2793L3.00006 19.248C2.83339 18.9772 2.78131 18.6855 2.84381 18.373C2.90631 18.0605 3.06256 17.8105 3.31256 17.623L5.65631 15.8418C5.63547 15.696 5.62506 15.5553 5.62506 15.4199V14.5762C5.62506 14.4408 5.63547 14.3001 5.65631 14.1543L3.31256 12.373C3.06256 12.1855 2.90631 11.9355 2.84381 11.623C2.78131 11.3105 2.83339 11.0189 3.00006 10.748L5.31256 6.7168C5.47922 6.44596 5.70839 6.26367 6.00006 6.16992C6.29172 6.07617 6.58339 6.0918 6.87506 6.2168L9.59381 7.3418C9.82297 7.17513 10.0626 7.01888 10.3126 6.87305C10.5626 6.72721 10.8126 6.60221 11.0626 6.49805L11.4376 3.5918C11.4792 3.2793 11.6146 3.01888 11.8438 2.81055C12.073 2.60221 12.3438 2.49805 12.6563 2.49805H17.3438C17.6563 2.49805 17.9271 2.60221 18.1563 2.81055C18.3855 3.01888 18.5209 3.2793 18.5626 3.5918L18.9376 6.49805C19.2084 6.60221 19.4636 6.72721 19.7032 6.87305C19.9428 7.01888 20.1771 7.17513 20.4063 7.3418L23.1251 6.2168C23.4167 6.0918 23.7084 6.07617 24.0001 6.16992C24.2917 6.26367 24.5209 6.44596 24.6876 6.7168L27.0001 10.748C27.1667 11.0189 27.2188 11.3105 27.1563 11.623C27.0938 11.9355 26.9376 12.1855 26.6876 12.373L24.3438 14.1543C24.3646 14.3001 24.3751 14.4408 24.3751 14.5762V15.4199C24.3751 15.5553 24.3542 15.696 24.3126 15.8418L26.6563 17.623C26.9063 17.8105 27.0626 18.0605 27.1251 18.373C27.1876 18.6855 27.1355 18.9772 26.9688 19.248L24.6563 23.248C24.4896 23.5189 24.2553 23.7064 23.9532 23.8105C23.6511 23.9147 23.3542 23.9043 23.0626 23.7793L20.4063 22.6543C20.1771 22.821 19.9376 22.9772 19.6876 23.123C19.4376 23.2689 19.1876 23.3939 18.9376 23.498L18.5626 26.4043C18.5209 26.7168 18.3855 26.9772 18.1563 27.1855C17.9271 27.3939 17.6563 27.498 17.3438 27.498H12.6563ZM15.0626 19.373C16.2709 19.373 17.3021 18.946 18.1563 18.0918C19.0105 17.2376 19.4376 16.2064 19.4376 14.998C19.4376 13.7897 19.0105 12.7585 18.1563 11.9043C17.3021 11.0501 16.2709 10.623 15.0626 10.623C13.8334 10.623 12.7969 11.0501 11.9532 11.9043C11.1094 12.7585 10.6876 13.7897 10.6876 14.998C10.6876 16.2064 11.1094 17.2376 11.9532 18.0918C12.7969 18.946 13.8334 19.373 15.0626 19.373Z" fill="black"/>
</svg>
