<svg width="28" height="28" viewBox="0 0 28 28" fill="none" xmlns="http://www.w3.org/2000/svg">
<path fill-rule="evenodd" clip-rule="evenodd" d="M16.8197 7.40958C17.2989 6.94952 17.9496 6.66676 18.6663 6.66676C19.092 6.66676 19.4943 6.76648 19.8513 6.94383C20.2891 7.30728 20.6925 7.7107 21.0559 8.14848C21.2333 8.50544 21.333 8.90779 21.333 9.33342C21.333 10.0502 21.0502 10.7009 20.5902 11.18C19.8659 9.48956 18.5102 8.13388 16.8197 7.40958ZM12.4161 7.00897C12.7175 6.19879 13.172 5.46306 13.7443 4.83691C8.79977 4.97216 4.83301 9.02288 4.83301 14.0001C4.83301 19.0627 8.93706 23.1668 13.9997 23.1668C18.9769 23.1668 23.0276 19.2 23.1629 14.2555C22.5367 14.8278 21.801 15.2822 20.9908 15.5837C20.2699 18.7797 17.4136 21.1668 13.9997 21.1668C10.0416 21.1668 6.83301 17.9581 6.83301 14.0001C6.83301 10.5862 9.22003 7.72983 12.4161 7.00897Z" fill="black"/>
<circle cx="18.6667" cy="9.33317" r="4.66667" fill="#1251D4"/>
</svg>
